<?xml version="1.0" standalone="no"?>
<!DOCTYPE svg PUBLIC "-//W3C//DTD SVG 20010904//EN"
 "http://www.w3.org/TR/2001/REC-SVG-20010904/DTD/svg10.dtd">
<svg version="1.0" xmlns="http://www.w3.org/2000/svg"
 width="250.000000pt" height="250.000000pt" viewBox="0 0 250.000000 250.000000"
 preserveAspectRatio="xMidYMid meet">
<metadata>
Created by potrace 1.11, written by Peter Selinger 2001-2013
</metadata>
<g transform="translate(0.000000,250.000000) scale(0.100000,-0.100000)"
fill="#000000" stroke="none">
<path d="M1045 2463 c-166 -29 -366 -113 -502 -210 -256 -182 -430 -449 -499
-768 -24 -110 -29 -329 -9 -430 30 -152 64 -253 128 -379 136 -266 399 -496
677 -589 166 -56 203 -62 405 -62 230 0 286 9 467 78 263 100 514 332 648 597
37 73 94 246 110 335 15 78 18 301 7 385 -47 330 -250 656 -525 842 -130 88
-334 176 -448 194 -21 3 -59 9 -82 14 -70 13 -290 9 -377 -7z m435 -113 c63
-11 135 -32 175 -50 11 -5 50 -22 86 -38 58 -26 145 -79 213 -131 12 -8 56
-51 99 -95 122 -123 194 -235 255 -392 46 -119 63 -212 67 -364 6 -217 -31
-379 -127 -559 -166 -313 -448 -517 -808 -585 -96 -18 -319 -14 -418 8 -329
73 -615 291 -766 584 -44 87 -89 205 -100 267 -31 159 -35 322 -11 435 3 14 8
43 11 64 9 60 62 203 101 276 61 111 114 182 197 265 113 112 151 141 277 208
224 120 480 156 749 107z"/>
<path d="M600 1885 l0 -95 153 0 154 0 -2 -467 c-1 -338 -5 -476 -13 -497 -36
-84 -86 -119 -173 -118 -77 0 -123 24 -155 78 l-26 44 -109 0 -109 0 6 -27
c19 -80 91 -177 164 -222 164 -101 375 -87 509 34 45 41 97 137 108 200 4 22
7 292 8 600 l0 560 -257 3 -258 2 0 -95z"/>
<path d="M1679 1833 c-195 -256 -234 -305 -313 -408 -42 -55 -88 -116 -102
-137 l-25 -36 198 -262 c109 -144 205 -272 213 -284 33 -49 142 -186 148 -187
27 -5 252 -3 252 2 0 3 -14 24 -31 45 -17 22 -40 52 -52 68 -12 15 -33 42 -47
60 -30 36 -217 275 -274 350 -22 28 -67 87 -101 132 l-62 80 131 165 c72 91
143 181 158 200 145 180 278 349 278 354 0 3 -58 5 -129 5 l-129 0 -113 -147z"/>
</g>
</svg>
